<svg xmlns="http://www.w3.org/2000/svg" xmlns:xlink="http://www.w3.org/1999/xlink" version="1.1" x="0px" y="0px" viewBox="0 0 100 100" enable-background="new 0 0 100 100" xml:space="preserve"><g display="none"><g display="inline" opacity="0.2"><circle fill="none" stroke="#000000" stroke-width="3" stroke-linecap="round" stroke-linejoin="round" stroke-miterlimit="10" cx="50" cy="49.999" r="19.2"/><line fill="none" stroke="#000000" stroke-width="3" stroke-linecap="round" stroke-linejoin="round" stroke-miterlimit="10" x1="50" y1="9.501" x2="50" y2="17.601"/><line fill="none" stroke="#000000" stroke-width="3" stroke-linecap="round" stroke-linejoin="round" stroke-miterlimit="10" x1="21.363" y1="21.363" x2="27.089" y2="27.092"/><line fill="none" stroke="#000000" stroke-width="3" stroke-linecap="round" stroke-linejoin="round" stroke-miterlimit="10" x1="9.502" y1="49.999" x2="17.602" y2="50"/><line fill="none" stroke="#000000" stroke-width="3" stroke-linecap="round" stroke-linejoin="round" stroke-miterlimit="10" x1="21.363" y1="78.637" x2="27.092" y2="72.909"/><line fill="none" stroke="#000000" stroke-width="3" stroke-linecap="round" stroke-linejoin="round" stroke-miterlimit="10" x1="50" y1="90.499" x2="50" y2="82.397"/><line fill="none" stroke="#000000" stroke-width="3" stroke-linecap="round" stroke-linejoin="round" stroke-miterlimit="10" x1="78.637" y1="78.637" x2="72.908" y2="72.909"/><line fill="none" stroke="#000000" stroke-width="3" stroke-linecap="round" stroke-linejoin="round" stroke-miterlimit="10" x1="90.498" y1="50.001" x2="82.398" y2="50.001"/><line fill="none" stroke="#000000" stroke-width="3" stroke-linecap="round" stroke-linejoin="round" stroke-miterlimit="10" x1="78.637" y1="21.363" x2="72.908" y2="27.092"/></g></g><g><g><g><path d="M34.25,50.75c0.182-9.079,4.431-14.511,13.361-16.662c9.491-2.286,18.543,5.953,18.641,15.266     c0.101,9.546-8.259,14.231-16.521,16.299c-10.141,2.539-13.656-7.799-15.588-15.201c-0.976-3.741-6.764-2.153-5.785,1.595     c1.295,4.962,2.332,9.52,5.635,13.57c3.694,4.53,10.16,7.051,15.905,6.066c5.506-0.943,11.508-3.54,15.775-7.215     c4.645-3.999,6.249-9.126,6.579-15.115c0.665-12.081-10.949-21.821-22.406-21.568C36.568,28.079,28.5,38.218,28.25,50.75     C28.173,54.622,34.173,54.614,34.25,50.75L34.25,50.75z"/></g></g><g><g><path d="M46.357,10.547c0.482,2.719,0.265,5.518,0.75,8.25c0.286,1.612,2.226,2.498,3.69,2.095     c1.685-0.463,2.381-2.082,2.095-3.69c-0.482-2.719-0.265-5.518-0.75-8.25c-0.286-1.612-2.226-2.498-3.69-2.095     C46.768,7.321,46.071,8.939,46.357,10.547L46.357,10.547z"/></g></g><g><g><path d="M74.764,29.09c2.19-1.667,4.163-3.525,6.107-5.469c2.739-2.738-1.504-6.98-4.242-4.242     c-1.565,1.564-3.128,3.187-4.893,4.531c-1.299,0.988-1.979,2.564-1.077,4.104C71.41,29.296,73.46,30.083,74.764,29.09     L74.764,29.09z"/></g></g><g><g><path d="M81,53.25c4.017-0.072,7.979-0.892,12-0.5c3.851,0.375,3.814-5.628,0-6c-4.021-0.392-7.983,0.428-12,0.5     C77.136,47.319,77.129,53.32,81,53.25L81,53.25z"/></g></g><g><g><path d="M70.659,74.264c1.322,2.765,3.908,4.928,6.22,6.857c1.254,1.047,3.009,1.233,4.242,0c1.078-1.078,1.257-3.193,0-4.242     c-1.991-1.663-4.226-3.437-5.28-5.643c-0.706-1.475-2.783-1.851-4.104-1.076C70.239,71.036,69.954,72.789,70.659,74.264     L70.659,74.264z"/></g></g><g><g><path d="M45.857,83.547c0.479,2.49,0.77,5.01,1.25,7.5c0.31,1.607,2.208,2.503,3.69,2.095c1.667-0.458,2.404-2.086,2.095-3.69     c-0.479-2.49-0.77-5.01-1.25-7.5c-0.31-1.607-2.208-2.503-3.69-2.095C46.285,80.316,45.548,81.943,45.857,83.547L45.857,83.547z"/></g></g><g><g><path d="M23.341,81.764c1.188-2.005,3.486-3.382,5.423-4.674c1.358-0.906,1.94-2.63,1.077-4.104     c-0.79-1.347-2.743-1.985-4.104-1.076c-2.816,1.878-5.812,3.852-7.577,6.826C16.181,82.072,21.369,85.088,23.341,81.764     L23.341,81.764z"/></g></g><g><g><path d="M7.5,53c3.113,0.187,6.164-0.46,9.25-0.75c1.628-0.153,3-1.249,3-3c0-1.52-1.369-3.153-3-3     c-3.086,0.29-6.137,0.937-9.25,0.75C3.634,46.768,3.656,52.769,7.5,53L7.5,53z"/></g></g><g><g><path d="M17.986,24.59c3.156,1.798,5.756,4.285,9.216,5.552c1.537,0.563,3.284-0.617,3.69-2.095     c0.461-1.675-0.562-3.128-2.095-3.69c-2.872-1.052-5.146-3.446-7.784-4.948C17.646,17.492,14.625,22.676,17.986,24.59     L17.986,24.59z"/></g></g></g></svg>